<mxfile host="65bd71144e">
    <diagram id="mb5hljX-2g1GAPxWOVU4" name="第 1 页">
        <mxGraphModel dx="-26" dy="1740" grid="1" gridSize="10" guides="1" tooltips="1" connect="1" arrows="1" fold="1" page="1" pageScale="1" pageWidth="827" pageHeight="1169" math="0" shadow="0">
            <root>
                <mxCell id="0"/>
                <mxCell id="1" parent="0"/>
                <mxCell id="2" value="" style="rounded=0;whiteSpace=wrap;html=1;fontSize=13;fontColor=#000000;fillColor=#E7E7E7;" parent="1" vertex="1">
                    <mxGeometry x="1050" y="214" width="140" height="220" as="geometry"/>
                </mxCell>
                <mxCell id="3" style="edgeStyle=none;html=1;exitX=0.5;exitY=0;exitDx=0;exitDy=0;entryX=0.5;entryY=1;entryDx=0;entryDy=0;fontSize=16;startArrow=none;startFill=0;endArrow=none;endFill=0;fontColor=#000000;" parent="1" target="7" edge="1">
                    <mxGeometry relative="1" as="geometry">
                        <mxPoint x="1127" y="480.25" as="sourcePoint"/>
                    </mxGeometry>
                </mxCell>
                <mxCell id="4" value="" style="edgeStyle=none;html=1;fontSize=16;startArrow=none;startFill=0;endArrow=classic;endFill=1;fontColor=#000000;" parent="1" target="7" edge="1">
                    <mxGeometry relative="1" as="geometry">
                        <mxPoint x="1127" y="480.25" as="sourcePoint"/>
                    </mxGeometry>
                </mxCell>
                <mxCell id="6" value="" style="endArrow=classic;html=1;fontSize=10;fontColor=#000000;" parent="1" edge="1">
                    <mxGeometry width="50" height="50" relative="1" as="geometry">
                        <mxPoint x="1127.13" y="558.75" as="sourcePoint"/>
                        <mxPoint x="1126.87" y="529.75" as="targetPoint"/>
                    </mxGeometry>
                </mxCell>
                <mxCell id="7" value="+" style="ellipse;whiteSpace=wrap;html=1;aspect=fixed;fontSize=16;fillColor=#cce5ff;strokeColor=#36393d;fontColor=#000000;" parent="1" vertex="1">
                    <mxGeometry x="1115" y="436.25" width="24" height="24" as="geometry"/>
                </mxCell>
                <mxCell id="8" value="" style="endArrow=classic;html=1;fontSize=16;fontColor=#000000;" parent="1" edge="1">
                    <mxGeometry width="50" height="50" relative="1" as="geometry">
                        <mxPoint x="1092" y="448" as="sourcePoint"/>
                        <mxPoint x="1115" y="448.1500000000001" as="targetPoint"/>
                    </mxGeometry>
                </mxCell>
                <mxCell id="9" style="edgeStyle=none;html=1;exitX=0.5;exitY=0;exitDx=0;exitDy=0;entryX=0.5;entryY=1;entryDx=0;entryDy=0;fontSize=13;startArrow=none;startFill=0;endArrow=none;endFill=0;fontColor=#000000;" parent="1" source="13" target="16" edge="1">
                    <mxGeometry relative="1" as="geometry"/>
                </mxCell>
                <mxCell id="10" style="edgeStyle=none;html=1;exitX=0.5;exitY=1;exitDx=0;exitDy=0;entryX=0.5;entryY=0;entryDx=0;entryDy=0;fontSize=13;startArrow=classic;startFill=1;endArrow=none;endFill=0;fontColor=#000000;" parent="1" source="13" target="7" edge="1">
                    <mxGeometry relative="1" as="geometry"/>
                </mxCell>
                <mxCell id="11" style="edgeStyle=none;html=1;exitX=0.75;exitY=1;exitDx=0;exitDy=0;fontSize=13;startArrow=classic;startFill=1;endArrow=none;endFill=0;fontColor=#000000;" parent="1" source="13" edge="1">
                    <mxGeometry relative="1" as="geometry">
                        <mxPoint x="1127" y="414.25" as="targetPoint"/>
                        <Array as="points">
                            <mxPoint x="1147" y="414.25"/>
                        </Array>
                    </mxGeometry>
                </mxCell>
                <mxCell id="12" style="edgeStyle=none;html=1;exitX=0.25;exitY=1;exitDx=0;exitDy=0;fontSize=13;startArrow=classic;startFill=1;endArrow=none;endFill=0;fontColor=#000000;" parent="1" source="13" edge="1">
                    <mxGeometry relative="1" as="geometry">
                        <mxPoint x="1127" y="414.25" as="targetPoint"/>
                        <Array as="points">
                            <mxPoint x="1107" y="414.25"/>
                        </Array>
                    </mxGeometry>
                </mxCell>
                <mxCell id="13" value="Multi-head&lt;br&gt;attention" style="rounded=0;whiteSpace=wrap;html=1;fontSize=16;fontColor=#000000;" parent="1" vertex="1">
                    <mxGeometry x="1087" y="352.25" width="80" height="42" as="geometry"/>
                </mxCell>
                <mxCell id="14" style="edgeStyle=none;html=1;exitX=0.5;exitY=0;exitDx=0;exitDy=0;entryX=0.5;entryY=1;entryDx=0;entryDy=0;fontSize=13;startArrow=none;startFill=0;endArrow=classic;endFill=1;fontColor=#000000;" parent="1" source="16" target="18" edge="1">
                    <mxGeometry relative="1" as="geometry">
                        <Array as="points">
                            <mxPoint x="1127" y="297.25"/>
                        </Array>
                    </mxGeometry>
                </mxCell>
                <mxCell id="15" style="edgeStyle=none;html=1;exitX=0;exitY=0.5;exitDx=0;exitDy=0;fontSize=13;startArrow=classic;startFill=1;endArrow=none;endFill=0;fontColor=#000000;" parent="1" source="16" edge="1">
                    <mxGeometry relative="1" as="geometry">
                        <mxPoint x="1127" y="424.25" as="targetPoint"/>
                        <Array as="points">
                            <mxPoint x="1072" y="325.25"/>
                            <mxPoint x="1072" y="424.25"/>
                        </Array>
                    </mxGeometry>
                </mxCell>
                <mxCell id="16" value="add&amp;amp;norm" style="rounded=0;whiteSpace=wrap;html=1;fontSize=16;fontColor=#000000;" parent="1" vertex="1">
                    <mxGeometry x="1087" y="310.25" width="80" height="30" as="geometry"/>
                </mxCell>
                <mxCell id="17" style="edgeStyle=none;html=1;exitX=0.5;exitY=0;exitDx=0;exitDy=0;entryX=0.5;entryY=1;entryDx=0;entryDy=0;fontSize=13;startArrow=none;startFill=0;endArrow=none;endFill=0;fontColor=#000000;" parent="1" source="18" target="21" edge="1">
                    <mxGeometry relative="1" as="geometry"/>
                </mxCell>
                <mxCell id="18" value="&lt;font style=&quot;font-size: 13px&quot;&gt;feed forward&lt;/font&gt;" style="rounded=0;whiteSpace=wrap;html=1;fontSize=16;fillColor=#dae8fc;strokeColor=#6c8ebf;fontColor=#000000;" parent="1" vertex="1">
                    <mxGeometry x="1087" y="267.25" width="80" height="20" as="geometry"/>
                </mxCell>
                <mxCell id="19" style="edgeStyle=none;html=1;exitX=0;exitY=0.5;exitDx=0;exitDy=0;fontSize=13;startArrow=classic;startFill=1;endArrow=none;endFill=0;fontColor=#000000;" parent="1" source="21" edge="1">
                    <mxGeometry relative="1" as="geometry">
                        <mxPoint x="1127" y="300.25" as="targetPoint"/>
                        <Array as="points">
                            <mxPoint x="1072" y="242.25"/>
                            <mxPoint x="1072" y="300.25"/>
                        </Array>
                    </mxGeometry>
                </mxCell>
                <mxCell id="60" style="edgeStyle=none;html=1;exitX=0.5;exitY=0;exitDx=0;exitDy=0;endArrow=none;endFill=0;" edge="1" parent="1" source="21">
                    <mxGeometry relative="1" as="geometry">
                        <mxPoint x="1220" y="290" as="targetPoint"/>
                        <Array as="points">
                            <mxPoint x="1127" y="200"/>
                            <mxPoint x="1210" y="200"/>
                            <mxPoint x="1210" y="290"/>
                        </Array>
                    </mxGeometry>
                </mxCell>
                <mxCell id="21" value="add&amp;amp;norm" style="rounded=0;whiteSpace=wrap;html=1;fontSize=16;fillColor=#fff2cc;strokeColor=#d6b656;fontColor=#000000;" parent="1" vertex="1">
                    <mxGeometry x="1087" y="227.25" width="80" height="30" as="geometry"/>
                </mxCell>
                <mxCell id="22" value="Input" style="text;html=1;strokeColor=none;fillColor=none;align=center;verticalAlign=middle;whiteSpace=wrap;rounded=0;fontSize=20;fontColor=#000000;" parent="1" vertex="1">
                    <mxGeometry x="1097" y="548" width="60" height="30" as="geometry"/>
                </mxCell>
                <mxCell id="23" value="position&lt;br style=&quot;font-size: 10px;&quot;&gt;encoding" style="text;html=1;strokeColor=none;fillColor=none;align=center;verticalAlign=middle;whiteSpace=wrap;rounded=0;fontSize=10;fontColor=#000000;" parent="1" vertex="1">
                    <mxGeometry x="1050" y="434" width="45" height="27" as="geometry"/>
                </mxCell>
                <mxCell id="24" value="input &lt;br&gt;embeddings" style="rounded=0;whiteSpace=wrap;html=1;fontSize=20;fillColor=#f8cecc;strokeColor=#b85450;fontColor=#000000;" parent="1" vertex="1">
                    <mxGeometry x="1072" y="480" width="110" height="49.75" as="geometry"/>
                </mxCell>
                <mxCell id="25" value="Multi-head&lt;br&gt;attention" style="rounded=0;whiteSpace=wrap;html=1;fontSize=16;fillColor=#ffcc99;strokeColor=#36393d;fontColor=#000000;" parent="1" vertex="1">
                    <mxGeometry x="1087" y="352.25" width="80" height="42" as="geometry"/>
                </mxCell>
                <mxCell id="26" value="add&amp;amp;norm" style="rounded=0;whiteSpace=wrap;html=1;fontSize=16;fillColor=#fff2cc;strokeColor=#d6b656;fontColor=#000000;" parent="1" vertex="1">
                    <mxGeometry x="1087" y="310.25" width="80" height="30" as="geometry"/>
                </mxCell>
                <mxCell id="27" value="" style="rounded=0;whiteSpace=wrap;html=1;fontSize=10;fillColor=#E7E7E7;strokeColor=#9673a6;" parent="1" vertex="1">
                    <mxGeometry x="1231.5" y="82" width="140" height="348" as="geometry"/>
                </mxCell>
                <mxCell id="28" value="" style="rounded=0;whiteSpace=wrap;html=1;fontSize=10;fillColor=#E7E7E7;strokeColor=#33001A;" parent="1" vertex="1">
                    <mxGeometry x="1240" y="178" width="121.5" height="105" as="geometry"/>
                </mxCell>
                <mxCell id="29" style="edgeStyle=none;html=1;exitX=0.5;exitY=0;exitDx=0;exitDy=0;entryX=0.5;entryY=1;entryDx=0;entryDy=0;fontSize=16;startArrow=none;startFill=0;endArrow=none;endFill=0;fontColor=#000000;" parent="1" target="33" edge="1">
                    <mxGeometry relative="1" as="geometry">
                        <mxPoint x="1291.5" y="480" as="sourcePoint"/>
                    </mxGeometry>
                </mxCell>
                <mxCell id="30" value="" style="edgeStyle=none;html=1;fontSize=16;startArrow=none;startFill=0;endArrow=classic;endFill=1;fontColor=#000000;" parent="1" target="33" edge="1">
                    <mxGeometry relative="1" as="geometry">
                        <mxPoint x="1291.5" y="480" as="sourcePoint"/>
                    </mxGeometry>
                </mxCell>
                <mxCell id="32" value="" style="endArrow=classic;html=1;fontSize=10;fontColor=#000000;" parent="1" edge="1">
                    <mxGeometry width="50" height="50" relative="1" as="geometry">
                        <mxPoint x="1293.06" y="558.7499999999999" as="sourcePoint"/>
                        <mxPoint x="1292.7999999999997" y="529.7499999999999" as="targetPoint"/>
                    </mxGeometry>
                </mxCell>
                <mxCell id="33" value="+" style="ellipse;whiteSpace=wrap;html=1;aspect=fixed;fontSize=16;fillColor=#cce5ff;strokeColor=#36393d;fontColor=#000000;" parent="1" vertex="1">
                    <mxGeometry x="1279.5" y="436" width="24" height="24" as="geometry"/>
                </mxCell>
                <mxCell id="34" value="" style="endArrow=classic;html=1;fontSize=16;fontColor=#000000;" parent="1" edge="1">
                    <mxGeometry width="50" height="50" relative="1" as="geometry">
                        <mxPoint x="1256.5" y="447.7499999999999" as="sourcePoint"/>
                        <mxPoint x="1279.5" y="447.90000000000043" as="targetPoint"/>
                    </mxGeometry>
                </mxCell>
                <mxCell id="35" style="edgeStyle=none;html=1;exitX=0.5;exitY=0;exitDx=0;exitDy=0;entryX=0.5;entryY=1;entryDx=0;entryDy=0;fontSize=13;startArrow=none;startFill=0;endArrow=none;endFill=0;fontColor=#000000;" parent="1" edge="1">
                    <mxGeometry relative="1" as="geometry">
                        <mxPoint x="1291.5" y="339.9999999999999" as="sourcePoint"/>
                        <mxPoint x="1291.5" y="327.9999999999999" as="targetPoint"/>
                    </mxGeometry>
                </mxCell>
                <mxCell id="36" style="edgeStyle=none;html=1;exitX=0.5;exitY=1;exitDx=0;exitDy=0;entryX=0.5;entryY=0;entryDx=0;entryDy=0;fontSize=13;startArrow=classic;startFill=1;endArrow=none;endFill=0;fontColor=#000000;" parent="1" target="33" edge="1">
                    <mxGeometry relative="1" as="geometry">
                        <mxPoint x="1291.5" y="393.9999999999999" as="sourcePoint"/>
                    </mxGeometry>
                </mxCell>
                <mxCell id="37" style="edgeStyle=none;html=1;exitX=0.75;exitY=1;exitDx=0;exitDy=0;fontSize=13;startArrow=classic;startFill=1;endArrow=none;endFill=0;fontColor=#000000;" parent="1" edge="1">
                    <mxGeometry relative="1" as="geometry">
                        <mxPoint x="1291.5" y="413.9999999999999" as="targetPoint"/>
                        <Array as="points">
                            <mxPoint x="1311.5" y="414"/>
                        </Array>
                        <mxPoint x="1311.5" y="393.9999999999999" as="sourcePoint"/>
                    </mxGeometry>
                </mxCell>
                <mxCell id="38" style="edgeStyle=none;html=1;exitX=0.25;exitY=1;exitDx=0;exitDy=0;fontSize=13;startArrow=classic;startFill=1;endArrow=none;endFill=0;fontColor=#000000;" parent="1" edge="1">
                    <mxGeometry relative="1" as="geometry">
                        <mxPoint x="1291.5" y="413.9999999999999" as="targetPoint"/>
                        <Array as="points">
                            <mxPoint x="1271.5" y="414"/>
                        </Array>
                        <mxPoint x="1271.5" y="393.9999999999999" as="sourcePoint"/>
                    </mxGeometry>
                </mxCell>
                <mxCell id="39" value="Onputs" style="text;html=1;strokeColor=none;fillColor=none;align=center;verticalAlign=middle;whiteSpace=wrap;rounded=0;fontSize=20;fontColor=#000000;" parent="1" vertex="1">
                    <mxGeometry x="1263" y="548" width="60" height="30" as="geometry"/>
                </mxCell>
                <mxCell id="40" value="position&lt;br style=&quot;font-size: 10px;&quot;&gt;encoding" style="text;html=1;strokeColor=none;fillColor=none;align=center;verticalAlign=middle;whiteSpace=wrap;rounded=0;fontSize=10;fontColor=#000000;" parent="1" vertex="1">
                    <mxGeometry x="1214.5" y="433.75" width="45" height="27" as="geometry"/>
                </mxCell>
                <mxCell id="41" value="onput&lt;br&gt;embeddings" style="rounded=0;whiteSpace=wrap;html=1;fontSize=20;fillColor=#f8cecc;strokeColor=#b85450;" parent="1" vertex="1">
                    <mxGeometry x="1234.75" y="480" width="113.5" height="50" as="geometry"/>
                </mxCell>
                <mxCell id="42" value="Masked&lt;br&gt;Multi-head&lt;br&gt;attention" style="rounded=0;whiteSpace=wrap;html=1;fontSize=16;fillColor=#ffcc99;strokeColor=#36393d;fontColor=#000000;" parent="1" vertex="1">
                    <mxGeometry x="1251.5" y="340" width="80" height="54" as="geometry"/>
                </mxCell>
                <mxCell id="43" style="edgeStyle=none;html=1;exitX=1;exitY=0.5;exitDx=0;exitDy=0;fontSize=10;startArrow=classic;startFill=1;endArrow=none;endFill=0;fontColor=#000000;" parent="1" source="45" edge="1">
                    <mxGeometry relative="1" as="geometry">
                        <mxPoint x="1291.5" y="419.9999999999999" as="targetPoint"/>
                        <Array as="points">
                            <mxPoint x="1351.5" y="313"/>
                            <mxPoint x="1351.5" y="420"/>
                        </Array>
                    </mxGeometry>
                </mxCell>
                <mxCell id="44" style="edgeStyle=none;html=1;exitX=0.5;exitY=0;exitDx=0;exitDy=0;fontSize=10;startArrow=none;startFill=0;endArrow=classic;endFill=1;entryX=0.679;entryY=1.018;entryDx=0;entryDy=0;entryPerimeter=0;fontColor=#000000;" parent="1" source="45" target="52" edge="1">
                    <mxGeometry relative="1" as="geometry">
                        <mxPoint x="1311.5" y="270.00000000000006" as="targetPoint"/>
                        <Array as="points">
                            <mxPoint x="1304.5" y="290"/>
                        </Array>
                    </mxGeometry>
                </mxCell>
                <mxCell id="45" value="add&amp;amp;norm" style="rounded=0;whiteSpace=wrap;html=1;fontSize=16;fillColor=#fff2cc;strokeColor=#d6b656;" parent="1" vertex="1">
                    <mxGeometry x="1251.5" y="298" width="80" height="30" as="geometry"/>
                </mxCell>
                <mxCell id="46" style="edgeStyle=none;html=1;exitX=0.5;exitY=0;exitDx=0;exitDy=0;entryX=0.5;entryY=1;entryDx=0;entryDy=0;fontSize=13;startArrow=none;startFill=0;endArrow=none;endFill=0;fontColor=#000000;" parent="1" source="47" target="50" edge="1">
                    <mxGeometry relative="1" as="geometry"/>
                </mxCell>
                <mxCell id="47" value="&lt;font style=&quot;font-size: 13px&quot;&gt;feed forward&lt;/font&gt;" style="rounded=0;whiteSpace=wrap;html=1;fontSize=16;fillColor=#dae8fc;strokeColor=#6c8ebf;" parent="1" vertex="1">
                    <mxGeometry x="1251.5" y="137" width="80" height="20" as="geometry"/>
                </mxCell>
                <mxCell id="48" style="edgeStyle=none;html=1;exitX=0.5;exitY=0;exitDx=0;exitDy=0;fontSize=13;startArrow=none;startFill=0;endArrow=classic;endFill=1;fontColor=#000000;" parent="1" source="50" edge="1">
                    <mxGeometry relative="1" as="geometry">
                        <mxPoint x="1291.6538461538462" y="59.99999999999977" as="targetPoint"/>
                    </mxGeometry>
                </mxCell>
                <mxCell id="49" style="edgeStyle=none;html=1;exitX=1;exitY=0.5;exitDx=0;exitDy=0;fontSize=10;startArrow=classic;startFill=1;endArrow=none;endFill=0;fontColor=#000000;" parent="1" source="50" edge="1">
                    <mxGeometry relative="1" as="geometry">
                        <mxPoint x="1291.5" y="169.9999999999999" as="targetPoint"/>
                        <Array as="points">
                            <mxPoint x="1351.5" y="112"/>
                            <mxPoint x="1351.5" y="170"/>
                        </Array>
                    </mxGeometry>
                </mxCell>
                <mxCell id="50" value="add&amp;amp;norm" style="rounded=0;whiteSpace=wrap;html=1;fontSize=16;fillColor=#fff2cc;strokeColor=#d6b656;" parent="1" vertex="1">
                    <mxGeometry x="1251.5" y="97" width="80" height="30" as="geometry"/>
                </mxCell>
                <mxCell id="51" style="edgeStyle=none;html=1;exitX=0.5;exitY=0;exitDx=0;exitDy=0;entryX=0.5;entryY=1;entryDx=0;entryDy=0;fontSize=10;startArrow=none;startFill=0;endArrow=none;endFill=0;fontColor=#000000;" parent="1" source="52" target="57" edge="1">
                    <mxGeometry relative="1" as="geometry"/>
                </mxCell>
                <mxCell id="52" value="Multi-head&lt;br&gt;attention" style="rounded=0;whiteSpace=wrap;html=1;fontSize=16;fillColor=#ffcc99;strokeColor=#36393d;fontColor=#000000;" parent="1" vertex="1">
                    <mxGeometry x="1250.5" y="227" width="80" height="42" as="geometry"/>
                </mxCell>
                <mxCell id="53" value="" style="endArrow=classic;html=1;fontSize=10;fontColor=#000000;" parent="1" edge="1">
                    <mxGeometry width="50" height="50" relative="1" as="geometry">
                        <mxPoint x="1220" y="290" as="sourcePoint"/>
                        <mxPoint x="1291.5" y="269.9999999999999" as="targetPoint"/>
                        <Array as="points">
                            <mxPoint x="1291.5" y="290"/>
                        </Array>
                    </mxGeometry>
                </mxCell>
                <mxCell id="54" value="" style="endArrow=classic;html=1;fontSize=10;fontColor=#000000;" parent="1" edge="1">
                    <mxGeometry width="50" height="50" relative="1" as="geometry">
                        <mxPoint x="1220" y="290" as="sourcePoint"/>
                        <mxPoint x="1280" y="269.9999999999999" as="targetPoint"/>
                        <Array as="points">
                            <mxPoint x="1271.5" y="290"/>
                        </Array>
                    </mxGeometry>
                </mxCell>
                <mxCell id="55" style="edgeStyle=none;html=1;exitX=1;exitY=0.5;exitDx=0;exitDy=0;fontSize=10;startArrow=classic;startFill=1;endArrow=none;endFill=0;fontColor=#000000;" parent="1" source="57" edge="1">
                    <mxGeometry relative="1" as="geometry">
                        <mxPoint x="1301.5" y="289.9999999999999" as="targetPoint"/>
                        <Array as="points">
                            <mxPoint x="1351.5" y="197"/>
                            <mxPoint x="1351.5" y="290"/>
                        </Array>
                    </mxGeometry>
                </mxCell>
                <mxCell id="56" style="edgeStyle=none;html=1;exitX=0.5;exitY=0;exitDx=0;exitDy=0;entryX=0.5;entryY=1;entryDx=0;entryDy=0;fontSize=10;startArrow=none;startFill=0;endArrow=classic;endFill=1;fontColor=#000000;" parent="1" source="57" target="47" edge="1">
                    <mxGeometry relative="1" as="geometry"/>
                </mxCell>
                <mxCell id="57" value="add&amp;amp;norm" style="rounded=0;whiteSpace=wrap;html=1;fontSize=16;fillColor=#fff2cc;strokeColor=#d6b656;" parent="1" vertex="1">
                    <mxGeometry x="1250.5" y="182" width="80" height="30" as="geometry"/>
                </mxCell>
                <mxCell id="58" value="linear&amp;amp;softmax" style="rounded=0;whiteSpace=wrap;html=1;fontSize=16;fillColor=#d5e8d4;strokeColor=#82b366;" parent="1" vertex="1">
                    <mxGeometry x="1238" y="19.999999999999996" width="110" height="40" as="geometry"/>
                </mxCell>
                <mxCell id="59" style="edgeStyle=none;html=1;exitX=0.5;exitY=0;exitDx=0;exitDy=0;fontSize=13;startArrow=none;startFill=0;endArrow=classic;endFill=1;fontColor=#000000;" parent="1" edge="1">
                    <mxGeometry relative="1" as="geometry">
                        <mxPoint x="1290.5" y="3.552713678800501e-15" as="targetPoint"/>
                        <mxPoint x="1290.26" y="20.000000000000004" as="sourcePoint"/>
                    </mxGeometry>
                </mxCell>
            </root>
        </mxGraphModel>
    </diagram>
</mxfile>